<svg xmlns="http://www.w3.org/2000/svg" fill="none" viewBox="0 0 24 24">
  <path fill="#1A1A1A" d="m21.3982 20.6025-4.8168-4.8169c1.3736-1.5796 2.0802-3.6309 1.9709-5.7214-.1094-2.09046-1.0261-4.05684-2.5569-5.48461-1.5309-1.42777-3.5563-2.20539-5.6493-2.16894-2.09305.03645-4.09016.88413-5.57037 2.36435-1.48022 1.48021-2.32789 3.47732-2.36435 5.5703-.03645 2.0931.74117 4.1185 2.16894 5.6493 1.42777 1.5309 3.39415 2.4476 5.48468 2.5569 2.0904.1093 4.1417-.5973 5.7214-1.9709l4.8168 4.8169c.1067.0994.2477.1535.3934.1509.1458-.0026.2848-.0616.3879-.1647.103-.103.162-.2421.1646-.3878.0026-.1457-.0515-.2868-.1509-.3934ZM3.56324 10.5c0-1.3721.40687-2.7134 1.16918-3.85426.7623-1.14087 1.84579-2.03007 3.11345-2.55515 1.26766-.52508 2.66253-.66247 4.00833-.39478 1.3457.26768 2.5819.92841 3.5521 1.89864.9702.97023 1.6309 2.20637 1.8986 3.55212.2677 1.34573.1303 2.74063-.3947 4.00833-.5251 1.2676-1.4143 2.3511-2.5552 3.1134-1.1409.7623-2.4822 1.1692-3.8543 1.1692-1.83922-.0022-3.6025-.7339-4.90305-2.0344C4.2971 14.1025 3.56547 12.3393 3.56324 10.5Z"/>
</svg>
