<svg xmlns="http://www.w3.org/2000/svg" width="32" height="32" fill="none"><path fill="#fff" d="M13.76 6.75a1.725 1.725 0 0 0-2.841.631L4.356 25.434A1.727 1.727 0 0 0 5.97 27.75c.204 0 .405-.036.596-.106l18.048-6.563a1.724 1.724 0 0 0 .625-2.841L13.76 6.75ZM6.054 26.234a.224.224 0 0 1-.288-.288l1.898-5.221 3.611 3.61-5.221 1.899Zm6.776-2.464-4.6-4.601 1.834-5.044 7.811 7.811-5.045 1.834Zm11.42-4.261a.217.217 0 0 1-.142.162l-4.678 1.704-8.805-8.806 1.704-4.67a.215.215 0 0 1 .162-.143.197.197 0 0 1 .052 0 .215.215 0 0 1 .156.066l11.485 11.486a.216.216 0 0 1 .066.2ZM20.25 9a4.44 4.44 0 0 1 .454-1.835C21.32 5.93 22.49 5.25 24 5.25c.934 0 1.566-.343 1.935-1.048.187-.374.295-.784.315-1.202a.75.75 0 1 1 1.5 0c0 1.298-.784 3.75-3.75 3.75-.934 0-1.566.343-1.935 1.048A3 3 0 0 0 21.75 9a.75.75 0 1 1-1.5 0Zm-3-4V2a.75.75 0 1 1 1.5 0v3a.75.75 0 1 1-1.5 0Zm12.28 10.47a.75.75 0 1 1-1.06 1.06l-2-2a.75.75 0 0 1 1.06-1.06l2 2Zm.708-5.759-3 1a.75.75 0 1 1-.475-1.422l3-1a.75.75 0 0 1 .475 1.422Z"/></svg>